<?xml version="1.0" encoding="UTF-8" standalone="no"?>
<!-- Created with Inkscape (http://www.inkscape.org/) -->

<svg
   width="233.62708mm"
   height="188.34628mm"
   viewBox="0 0 233.62708 188.34628"
   version="1.1"
   id="svg5"
   inkscape:version="1.1.1 (3bf5ae0d25, 2021-09-20)"
   sodipodi:docname="Balloons.svg"
   xmlns:inkscape="http://www.inkscape.org/namespaces/inkscape"
   xmlns:sodipodi="http://sodipodi.sourceforge.net/DTD/sodipodi-0.dtd"
   xmlns="http://www.w3.org/2000/svg"
   xmlns:svg="http://www.w3.org/2000/svg">
  <sodipodi:namedview
     id="namedview7"
     pagecolor="#ffffff"
     bordercolor="#cccccc"
     borderopacity="1"
     inkscape:pageshadow="0"
     inkscape:pageopacity="1"
     inkscape:pagecheckerboard="0"
     inkscape:document-units="mm"
     showgrid="false"
     inkscape:zoom="0.64"
     inkscape:cx="626.5625"
     inkscape:cy="442.1875"
     inkscape:window-width="3840"
     inkscape:window-height="2066"
     inkscape:window-x="2869"
     inkscape:window-y="-11"
     inkscape:window-maximized="1"
     inkscape:current-layer="g1357" />
  <defs
     id="defs2">
    <linearGradient
       id="eab5defd-bb13-45ae-a86e-22d39d3e2cea"
       x1="600"
       y1="803.52002"
       x2="600"
       y2="630.46002"
       gradientUnits="userSpaceOnUse">
      <stop
         offset="0"
         stop-color="gray"
         stop-opacity="0.25"
         id="stop1037" />
      <stop
         offset="0.54"
         stop-color="gray"
         stop-opacity="0.12"
         id="stop1039" />
      <stop
         offset="1"
         stop-color="gray"
         stop-opacity="0.1"
         id="stop1041" />
    </linearGradient>
    <linearGradient
       id="666c504c-cd42-41b9-a03e-d98f4dda3eb5"
       x1="32458.008"
       y1="26341.291"
       x2="32458.008"
       y2="0"
       gradientUnits="userSpaceOnUse" />
    <linearGradient
       id="8e152b24-383a-4e7d-b315-0bee7e3d74a2"
       x1="372.72979"
       y1="1339.9201"
       x2="372.72979"
       y2="1339.919"
       gradientTransform="scale(2.081666,0.48038446)"
       gradientUnits="userSpaceOnUse" />
    <linearGradient
       id="8f2a7dfd-1602-45be-be61-6ebd6ab5a03b"
       x1="57339.642"
       y1="13572.697"
       x2="57339.642"
       y2="12981.32"
       gradientTransform="scale(0.66363587,1.5068504)"
       gradientUnits="userSpaceOnUse" />
    <linearGradient
       id="6fa74df0-cae9-46f9-9ace-4bf5394eec23"
       x1="902.46997"
       y1="538.96002"
       x2="902.46997"
       y2="500.17001"
       gradientTransform="rotate(0.13,41963.117,-69459.299)"
       gradientUnits="userSpaceOnUse">
      <stop
         offset="0"
         stop-opacity="0.12"
         id="stop1047" />
      <stop
         offset="0.55"
         stop-opacity="0.09"
         id="stop1049" />
      <stop
         offset="1"
         stop-opacity="0.02"
         id="stop1051" />
    </linearGradient>
    <linearGradient
       id="1fbefcf2-1d0d-411f-b7ef-97a6712cae01"
       x1="224217.02"
       y1="111287.9"
       x2="224217.02"
       y2="50285.782"
       gradientTransform="scale(0.98674044,1.0134377)"
       gradientUnits="userSpaceOnUse" />
  </defs>
  <g
     inkscape:label="Layer 1"
     inkscape:groupmode="layer"
     id="layer1"
     transform="translate(586.06528,301.53615)">
    <g
       id="g1357"
       transform="matrix(0.26458333,0,0,0.26458333,-586.0547,-301.53615)">
      <rect
         x="636.34003"
         y="24.91"
         width="200.86"
         height="21.690001"
         rx="9.96"
         ry="9.96"
         fill="#f2f2f2"
         id="rect1059"
         style="fill:#fbf7f7;fill-opacity:1" />
      <rect
         x="681.33002"
         y="43.389999"
         width="200.86"
         height="21.690001"
         rx="9.96"
         ry="9.96"
         fill="#f2f2f2"
         id="rect1061"
         style="fill:#fbf7f7;fill-opacity:1" />
      <rect
         x="605"
         y="59.459999"
         width="200.86"
         height="21.690001"
         rx="9.96"
         ry="9.96"
         fill="#f2f2f2"
         id="rect1063"
         style="fill:#fbf7f7;fill-opacity:1" />
      <rect
         x="292.45999"
         y="273.17999"
         width="200.86"
         height="21.690001"
         rx="9.96"
         ry="9.96"
         fill="#f2f2f2"
         id="rect1065"
         style="fill:#fbf7f7;fill-opacity:1" />
      <rect
         x="337.45001"
         y="291.66"
         width="200.86"
         height="21.690001"
         rx="9.96"
         ry="9.96"
         fill="#f2f2f2"
         id="rect1067"
         style="fill:#fbf7f7;fill-opacity:1" />
      <rect
         x="261.12"
         y="307.72"
         width="200.86"
         height="21.690001"
         rx="9.96"
         ry="9.96"
         fill="#f2f2f2"
         id="rect1069"
         style="fill:#fbf7f7;fill-opacity:1" />
      <g
         opacity="0.5"
         id="g1073">
        <path
           d="m 1011,780.22 c -4.82,0 -115.7,48.21 -244.25,-78.74 C 696.94,632.55 628.56,625.21 580.64,632.9 551.19,637.62 524.3,652 503,672.83 c -17.13,16.82 -58.59,39.74 -155.73,33.48 -149.44,-9.64 -188.81,97.22 -188.81,97.22 h 883 c 0,0 -25.67,-23.31 -30.46,-23.31 z"
           transform="translate(-158.5,-94.07)"
           fill="url(#eab5defd-bb13-45ae-a86e-22d39d3e2cea)"
           id="path1071"
           style="fill:url(#eab5defd-bb13-45ae-a86e-22d39d3e2cea)" />
      </g>
      <path
         d="m 158.5,805.93 c 0,0 39.37,-106.86 188.81,-97.22 97.14,6.29 138.61,-16.66 155.69,-33.47 21.26,-20.87 48.14,-35.21 77.56,-39.93 47.92,-7.69 116.31,-0.35 186.11,68.58 128.55,126.95 239.43,78.74 244.25,78.74 4.82,0 30.53,23.3 30.53,23.3 z"
         transform="translate(-158.5,-94.07)"
         fill="#f2f2f2"
         id="path1075" />
      <path
         d="m 158.5,805.93 c 0,0 39.37,-106.86 188.81,-97.22 97.14,6.29 138.61,-16.66 155.69,-33.47 21.26,-20.87 48.14,-35.21 77.56,-39.93 47.92,-7.69 116.31,-0.35 186.11,68.58 128.55,126.95 239.43,78.74 244.25,78.74 4.82,0 30.53,23.3 30.53,23.3 z"
         transform="translate(-158.5,-94.07)"
         opacity="0.02"
         id="path1077"
         style="fill:#fbf7f7;fill-opacity:1" />
      <rect
         x="91.589996"
         y="123.73"
         width="200.86"
         height="21.690001"
         rx="9.96"
         ry="9.96"
         fill="#f2f2f2"
         id="rect1079"
         style="fill:#fbf7f7;fill-opacity:1" />
      <rect
         x="136.59"
         y="142.21001"
         width="200.86"
         height="21.690001"
         rx="9.96"
         ry="9.96"
         fill="#f2f2f2"
         id="rect1081"
         style="fill:#fbf7f7;fill-opacity:1" />
      <rect
         x="60.259998"
         y="158.28"
         width="200.86"
         height="21.690001"
         rx="9.96"
         ry="9.96"
         fill="#f2f2f2"
         id="rect1083"
         style="fill:#fbf7f7;fill-opacity:1" />
      <g
         opacity="0.5"
         id="g1087">
        <circle
           cx="199.25999"
           cy="81.150002"
           r="81.150002"
           fill="url(#666c504c-cd42-41b9-a03e-d98f4dda3eb5)"
           id="circle1085"
           style="fill:url(#666c504c-cd42-41b9-a03e-d98f4dda3eb5)" />
      </g>
      <circle
         cx="199.25999"
         cy="81.150002"
         r="72.309998"
         fill="#fccc63"
         id="circle1089" />
      <rect
         x="160.98"
         y="590.63"
         width="62.900002"
         height="46.73"
         fill="#3b82f6"
         id="rect1091"
         style="fill:#5cbdb9;fill-opacity:1" />
      <path
         d="m 314,682.8 35.15,-35.15 a 2.74,2.74 0 0 1 3.88,0 l 34.87,34.87 a 2.74,2.74 0 0 1 -1.93,4.68 l -70,0.28 A 2.74,2.74 0 0 1 314,682.8 Z"
         fill="#3b82f6"
         id="path1093"
         transform="translate(-158.5,-94.07)"
         style="fill:#5cbdb9;fill-opacity:1" />
      <path
         d="m 155.5,588.73 35.15,-35.15 a 2.74,2.74 0 0 1 3.88,0 l 34.87,34.87 a 2.74,2.74 0 0 1 -1.93,4.68 l -70,0.28 a 2.74,2.74 0 0 1 -1.97,-4.68 z"
         opacity="0.05"
         id="path1095"
         style="fill:#5cbdb9;fill-opacity:1" />
      <path
         d="m 191.62,616.28 h 1.26 a 7.1,7.1 0 0 1 7.1,7.1 v 14 h -15.46 v -14 a 7.1,7.1 0 0 1 7.1,-7.1 z"
         fill="#ffffff"
         id="path1097" />
      <circle
         cx="192.60001"
         cy="562.16998"
         r="3.8699999"
         fill="#ffffff"
         id="circle1099" />
      <rect
         x="165.89999"
         y="596.59998"
         width="14.76"
         height="11.24"
         fill="#ffffff"
         id="rect1101" />
      <rect
         x="172.57001"
         y="596.59998"
         width="1.41"
         height="11.24"
         fill="#3b82f6"
         id="rect1103"
         style="fill:#5cbdb9;fill-opacity:1" />
      <rect
         x="205.25"
         y="596.59998"
         width="14.76"
         height="11.24"
         fill="#ffffff"
         id="rect1105" />
      <rect
         x="211.92999"
         y="596.59998"
         width="1.41"
         height="11.24"
         fill="#3b82f6"
         id="rect1107"
         style="fill:#5cbdb9;fill-opacity:1" />
      <g
         opacity="0.2"
         id="g1111">
        <path
           d="m 611,635.22 v 0 c -0.13,-0.03 0,0 0,0 z"
           transform="translate(-158.5,-94.07)"
           fill="url(#8e152b24-383a-4e7d-b315-0bee7e3d74a2)"
           id="path1109"
           style="fill:url(#8e152b24-383a-4e7d-b315-0bee7e3d74a2)" />
      </g>
      <g
         opacity="0.2"
         id="g1115">
        <path
           d="m 612.45,664.26 h 0.12 a 0.14,0.14 0 0 0 0.09,-0.12 0.32,0.32 0 0 0 0,-0.12 v -0.1 c -0.1,-0.24 -0.33,-0.56 -0.46,-0.84 l -0.06,-0.15 a 1.15,1.15 0 0 1 0,-0.2 c 0,0 0,-0.06 0,-0.09 l 2.16,-7.09 v 0 l 0.05,-0.17 c 0,0 2.75,1.18 3.46,3.54 a 5.54,5.54 0 0 1 0.06,3.55 v 0 0 l -0.05,0.12 h 0.05 v 1.3 h 3 c 0.21,-0.1 -0.07,-0.36 -0.35,-0.62 l -0.07,-0.07 -0.18,-0.19 v 0 a 0.94,0.94 0 0 1 -0.13,-0.19 l -0.05,-0.12 v -0.07 H 620 v -0.11 a 10.21,10.21 0 0 0 -3.06,-9.66 v 0 a 10.46,10.46 0 0 0 0,-6.65 c 0.28,-0.2 5.73,-4.14 5.69,-9.24 a 7,7 0 0 0 0,-0.82 c 0,0 0.47,-0.39 0,-1.1 v -0.06 0 0 0 0 0 0 0 0 0 0 0 0 0 h -0.05 -0.33 a 1.48,1.48 0 0 0 -0.61,0.2 c 0,0 -0.31,1 0,1.26 h -0.08 c 0,0 -3.23,7 -5.39,8 l -0.15,-0.09 v -0.91 a 1.1,1.1 0 0 0 0,-0.12 v 0 a 1.09,1.09 0 0 0 0,-0.11 2.45,2.45 0 0 0 0.65,-0.49 v 0 a 2.45,2.45 0 0 0 0.2,-0.24 v 0 l 0.08,-0.12 v 0 l 0.08,-0.14 v 0 l 0.06,-0.13 v 0 a 2.42,2.42 0 0 0 0.11,-0.29 v 0 -0.12 0 -0.15 0 c 0,0 0,-0.08 0,-0.12 v 0 c 0,-0.05 0,-0.1 0,-0.16 a 2.43,2.43 0 0 0 -0.15,-0.84 q 0,-0.11 -0.09,-0.22 l -0.05,-0.11 -0.07,-0.12 a 0.8,0.8 0 0 1 0.19,-0.17 1.13,1.13 0 0 1 0.45,-0.14 h 0.39 0.08 a 0.7,0.7 0 0 0 0.16,-0.09 0.73,0.73 0 0 1 0.26,-0.14 h -0.59 -0.09 -0.08 -0.09 -0.08 -0.08 -0.08 -0.08 -0.08 v 0 l -0.16,-0.07 a 0.86,0.86 0 0 0 0.26,0.06 h 0.34 0.06 v 0 0 0 0 0 0 0 0 l 0.06,-0.05 v 0 0 0 0 0 0 0 -0.08 h -0.11 -0.07 v 0 a 1.52,1.52 0 0 1 -0.41,0 h -0.29 v 0 h -0.13 v 0 l -0.12,-0.05 v 0 A 0.65956425,0.65956425 0 0 0 617,638 l 0.11,-0.07 a 0.58,0.58 0 0 0 0.2,-0.39 0.44,0.44 0 0 0 0,-0.19 l -0.07,0.06 h -0.06 a 1,1 0 0 1 -0.65,0.18 h -0.08 a 3,3 0 0 1 -0.59,-0.22 l -0.17,-0.06 h -0.05 -0.14 -0.08 -0.11 -0.53 a 3.05,3.05 0 0 0 -2,0.84 3,3 0 0 0 -0.34,0.4 3.92,3.92 0 0 1 0.39,-2.13 h -0.06 v 0 h -0.18 l -0.09,0.17 a 2,2 0 0 1 0.27,-0.68 h -0.06 a 0.81,0.81 0 0 0 0,-1.08 c -0.47,-0.71 -1.34,-0.16 -1.34,-0.16 a 3.64,3.64 0 0 0 -0.14,0.71 l -0.14,-0.06 c -0.16,0.54 -1.94,6.74 1,10.7 a 2.47,2.47 0 0 0 0,0.25 v 6.68 l -2,9.16 v 0 0 0 l -0.39,1.73 2.81,0.46 z m 0.5,-21.65 a 2.44,2.44 0 0 0 0.52,0.33 1.09,1.09 0 0 0 0,0.19 V 644 l -0.17,0.08 c -0.13,-0.43 -0.24,-0.93 -0.36,-1.47 z"
           transform="translate(-158.5,-94.07)"
           fill="url(#8f2a7dfd-1602-45be-be61-6ebd6ab5a03b)"
           id="path1113"
           style="fill:url(#8f2a7dfd-1602-45be-be61-6ebd6ab5a03b)" />
      </g>
      <path
         d="m 622.66,636.93 c 0,0 0.52,-0.44 0,-1.22 -0.52,-0.78 -1.48,-0.17 -1.48,-0.17 0,0 -0.35,1.13 0,1.39 0.35,0.26 1.48,0 1.48,0 z"
         transform="translate(-158.5,-94.07)"
         fill="#ca7070"
         id="path1117" />
      <path
         id="39458adb-bcd5-4769-9abe-182f7ae0ca71"
         data-name="&lt;Path&gt;"
         d="m 617.28,666.09 h 2.4 a 0.79,0.79 0 0 0 0.23,0.62 c 0.32,0.37 1,0.82 0.67,1 h -3.3 z"
         transform="translate(-158.5,-94.07)"
         fill="#00695c" />
      <path
         d="m 619.73,666.71 a 0.79,0.79 0 0 1 -0.23,-0.62 h 0.17 a 0.79,0.79 0 0 0 0.23,0.62 c 0.32,0.37 1,0.82 0.67,1 h -0.17 c 0.3,-0.18 -0.35,-0.63 -0.67,-1 z"
         transform="translate(-158.5,-94.07)"
         fill="#ffffff"
         opacity="0.2"
         id="path1120" />
      <path
         id="24b3a5d5-99f8-4317-aac1-7589e0408752"
         data-name="&lt;Path&gt;"
         d="M 608.72,665.6 611,666 a 1.15,1.15 0 0 0 0.1,0.79 c 0.25,0.51 0.8,1.17 0.47,1.31 l -3.25,-0.53 z"
         transform="translate(-158.5,-94.07)"
         fill="#00695c" />
      <path
         d="m 609.82,635.87 c 0,0 -2.57,8.11 1.74,12.6 l 1.25,-1 c 0,0 -2.55,-8.85 -1.12,-10.93 -2.52,-0.79 -1.87,-0.67 -1.87,-0.67 z"
         transform="translate(-158.5,-94.07)"
         fill="#00695c"
         id="path1123" />
      <path
         d="m 611.6,636.58 c 0,0 0.52,-0.44 0,-1.22 -0.52,-0.78 -1.48,-0.17 -1.48,-0.17 0,0 -0.35,1.13 0,1.39 0.35,0.26 1.48,0 1.48,0 z"
         transform="translate(-158.5,-94.07)"
         fill="#ca7070"
         id="path1125" />
      <path
         d="m 610.9,666.75 a 1.15,1.15 0 0 1 -0.1,-0.79 l -2.08,-0.34 v 0 L 611,666 a 1.15,1.15 0 0 0 0.1,0.79 c 0.25,0.51 0.8,1.17 0.47,1.31 h -0.14 c 0.22,-0.24 -0.29,-0.86 -0.53,-1.35 z"
         transform="translate(-158.5,-94.07)"
         fill="#ffffff"
         opacity="0.2"
         id="path1127" />
      <rect
         x="612.51001"
         y="643.41998"
         width="2.4400001"
         height="3.6199999"
         rx="1.12"
         ry="1.12"
         transform="rotate(180,534.485,598.195)"
         fill="#ca7070"
         id="rect1129" />
      <path
         d="m 612.63,648 c 0,0 -2.52,-8.74 -1.15,-10.89 h 0.2 v 0 h 0.06 c -1.43,2.08 1.12,10.93 1.12,10.93 l -1.25,1 -0.11,-0.12 z"
         transform="translate(-158.5,-94.07)"
         fill="#ffffff"
         opacity="0.2"
         id="path1131" />
      <circle
         cx="455.19"
         cy="547.91998"
         r="2.7"
         fill="#ca7070"
         id="circle1133" />
      <path
         d="m 614.65,645.82 v -1.18 a 1.21,1.21 0 0 0 0,-0.26 2.7,2.7 0 0 0 -1.08,-5.1 h 0.15 a 2.7,2.7 0 0 1 1.24,5.1 1.21,1.21 0 0 1 0,0.26 v 1.18 a 1.22,1.22 0 0 1 -1.22,1.22 h -0.15 a 1.22,1.22 0 0 0 1.06,-1.22 z"
         transform="translate(-158.5,-94.07)"
         fill="#ffffff"
         opacity="0.2"
         id="path1135" />
      <path
         d="m 610.95,655.45 c 0,0 5.21,0.59 5.4,0 a 11.52,11.52 0 0 0 0,-7.41 2.7,2.7 0 0 0 -2.7,-2.7 v 0 a 2.7,2.7 0 0 0 -2.7,2.7 z"
         transform="translate(-158.5,-94.07)"
         fill="#00695c"
         id="path1137" />
      <path
         d="m 610.95,655.45 -2.35,10.8 h 2.35 l 2.44,-8 c 0,0 3,1.31 3.83,3.92 a 5.73,5.73 0 0 1 0,4.09 h 2.53 v -0.12 a 11.23,11.23 0 0 0 -3.42,-10.69 v 0"
         transform="translate(-158.5,-94.07)"
         fill="#263238"
         id="path1139" />
      <path
         d="m 616,655.45 a 11.52,11.52 0 0 0 0,-7.41 2.7,2.7 0 0 0 -2.53,-2.69 h 0.17 a 2.7,2.7 0 0 1 2.7,2.7 11.52,11.52 0 0 1 0,7.41 c -0.07,0.21 -0.78,0.27 -1.67,0.26 0.77,-0.02 1.33,-0.09 1.33,-0.27 z"
         transform="translate(-158.5,-94.07)"
         fill="#ffffff"
         opacity="0.2"
         id="path1141" />
      <path
         d="m 616.39,648 c 0,0 7,-4.88 6.27,-11.06 h -1.56 c 0,0 -3.75,8.1 -6.14,8.89 -2.39,0.79 1.43,2.17 1.43,2.17 z"
         transform="translate(-158.5,-94.07)"
         fill="#00695c"
         id="path1143" />
      <g
         opacity="0.2"
         id="g1149">
        <path
           d="m 613.34,658.42 -2.39,7.87 h -0.35 l 2.44,-8 z"
           transform="translate(-158.5,-94.07)"
           fill="#ffffff"
           id="path1145" />
        <path
           d="m 616,655.49 h 0.35 a 11.23,11.23 0 0 1 3.42,10.69 v 0.12 h -0.35 v -0.12 A 11.23,11.23 0 0 0 616,655.49 Z"
           transform="translate(-158.5,-94.07)"
           fill="#ffffff"
           id="path1147" />
      </g>
      <path
         d="m 622.4,637 h 0.26 c 0.7,6.19 -6.27,11.06 -6.27,11.06 l -0.17,-0.07 c 0.78,-0.57 6.83,-5.2 6.18,-10.99 z"
         transform="translate(-158.5,-94.07)"
         fill="#ffffff"
         opacity="0.2"
         id="path1151" />
      <path
         d="m 615.84,640.78 a 4.47,4.47 0 0 0 -0.31,1.09 2.92,2.92 0 0 1 -1.24,1.9 2.74,2.74 0 0 1 -1.21,0.33 2.31,2.31 0 0 1 -1.79,-0.54 2.22,2.22 0 0 1 -0.55,-1.1 3.74,3.74 0 0 1 1,-3.44 3.32,3.32 0 0 1 3.45,-0.73 3.3,3.3 0 0 0 0.66,0.24 1.09,1.09 0 0 0 1,-0.32 0.6,0.6 0 0 1 -0.58,0.78 1.68,1.68 0 0 0 1.29,0.07 1.09,1.09 0 0 1 -1.38,0.55 3.69,3.69 0 0 0 1.56,0.32 c -0.11,0 -0.33,0.21 -0.47,0.25 a 3,3 0 0 1 -0.52,0 1,1 0 0 0 -0.91,0.6 z"
         transform="translate(-158.5,-94.07)"
         fill="#263238"
         id="path1153" />
      <g
         opacity="0.2"
         id="g1165">
        <path
           d="m 616.2,639 a 1.67,1.67 0 0 0 0.64,0.16 1.68,1.68 0 0 1 -0.84,-0.16 0.61,0.61 0 0 0 0.61,-0.66 l 0.14,-0.12 A 0.6,0.6 0 0 1 616.2,639 Z"
           transform="translate(-158.5,-94.07)"
           fill="#ffffff"
           id="path1155" />
        <path
           d="m 615.66,638.53 a 3.3,3.3 0 0 1 -0.66,-0.24 3,3 0 0 0 -1,-0.21 3,3 0 0 1 1.21,0.21 3.3,3.3 0 0 0 0.66,0.24 h 0.09 a 1,1 0 0 1 -0.3,0 z"
           transform="translate(-158.5,-94.07)"
           fill="#ffffff"
           id="path1157" />
        <path
           d="m 617,640.18 c 0.14,0 0.36,-0.25 0.47,-0.25 a 3.69,3.69 0 0 1 -1.56,-0.32 1,1 0 0 0 0.35,0.07 3.69,3.69 0 0 0 1.39,0.24 c -0.11,0 -0.33,0.21 -0.47,0.25 a 1.16,1.16 0 0 1 -0.36,0 z"
           transform="translate(-158.5,-94.07)"
           fill="#ffffff"
           id="path1159" />
        <path
           d="m 612.9,644.1 a 2.74,2.74 0 0 0 1.21,-0.33 2.92,2.92 0 0 0 1.24,-1.9 4.47,4.47 0 0 1 0.31,-1.09 1,1 0 0 1 0.85,-0.56 h 0.17 a 1,1 0 0 0 -0.85,0.56 4.47,4.47 0 0 0 -0.31,1.09 2.92,2.92 0 0 1 -1.24,1.9 2.74,2.74 0 0 1 -1.21,0.33 z"
           transform="translate(-158.5,-94.07)"
           fill="#ffffff"
           id="path1161" />
        <path
           d="m 616.41,639.69 a 1.1,1.1 0 0 0 0.89,-0.57 l 0.2,-0.06 a 1.1,1.1 0 0 1 -1.09,0.63 z"
           transform="translate(-158.5,-94.07)"
           fill="#ffffff"
           id="path1163" />
      </g>
      <path
         d="m 622.49,636.93 c 0,0 0.52,-0.44 0,-1.22 a 0.83,0.83 0 0 0 -0.65,-0.4 0.85,0.85 0 0 1 0.82,0.4 c 0.52,0.78 0,1.22 0,1.22 a 4.72,4.72 0 0 1 -1,0.11 5.16,5.16 0 0 0 0.83,-0.11 z"
         transform="translate(-158.5,-94.07)"
         fill="#ffffff"
         opacity="0.2"
         id="path1167" />
      <path
         d="m 634.41,627.22 c 0,0 -2.57,8.11 1.74,12.6 l 1.25,-1 c 0,0 -2.55,-8.85 -1.12,-10.93 -2.52,-0.79 -1.87,-0.67 -1.87,-0.67 z"
         transform="translate(-158.5,-94.07)"
         fill="#ff5252"
         id="path1169" />
      <path
         d="m 636.19,627.94 c 0,0 0.52,-0.44 0,-1.22 -0.52,-0.78 -1.48,-0.17 -1.48,-0.17 0,0 -0.35,1.13 0,1.39 0.35,0.26 1.48,0 1.48,0 z"
         transform="translate(-158.5,-94.07)"
         fill="#f6b9ad"
         id="path1171" />
      <rect
         x="637.09998"
         y="634.78003"
         width="2.4400001"
         height="3.6199999"
         rx="1.12"
         ry="1.12"
         transform="rotate(180,559.075,589.555)"
         fill="#f6b9ad"
         id="rect1173" />
      <path
         d="m 637.22,639.39 c 0,0 -2.52,-8.74 -1.15,-10.89 h 0.2 v 0 h 0.06 c -1.43,2.08 1.12,10.93 1.12,10.93 l -1.25,1 -0.11,-0.12 z"
         transform="translate(-158.5,-94.07)"
         fill="#ffffff"
         opacity="0.2"
         id="path1175" />
      <circle
         cx="479.78"
         cy="539.27002"
         r="2.7"
         fill="#f6b9ad"
         id="circle1177" />
      <path
         d="M 639.24,637.17 V 636 a 1.21,1.21 0 0 0 0,-0.26 2.7,2.7 0 0 0 -1.08,-5.1 h 0.15 a 2.7,2.7 0 0 1 1.24,5.1 1.21,1.21 0 0 1 0,0.26 v 1.18 a 1.22,1.22 0 0 1 -1.22,1.22 h -0.15 a 1.22,1.22 0 0 0 1.06,-1.23 z"
         transform="translate(-158.5,-94.07)"
         fill="#ffffff"
         opacity="0.2"
         id="path1179" />
      <path
         d="m 635.54,646.8 c 0,0 5.21,0.59 5.4,0 0.62,-1.9 -1,-4 -0.21,-5 a 2.47,2.47 0 0 0 0.21,-2.44 2.7,2.7 0 0 0 -2.7,-2.7 v 0 a 2.7,2.7 0 0 0 -2.7,2.7 z"
         transform="translate(-158.5,-94.07)"
         fill="#ff5252"
         id="path1181" />
      <path
         d="m 640.74,641.84 a 2.47,2.47 0 0 0 0.21,-2.44 2.7,2.7 0 0 0 -2.7,-2.7 h -0.17 a 2.7,2.7 0 0 1 2.53,2.69 2.47,2.47 0 0 1 -0.21,2.44 c -0.84,1 0.83,3.06 0.21,5 -0.06,0.18 -0.6,0.25 -1.31,0.26 0.88,0 1.59,-0.05 1.66,-0.26 0.61,-1.93 -1.06,-3.99 -0.22,-4.99 z"
         transform="translate(-158.5,-94.07)"
         fill="#ffffff"
         opacity="0.2"
         id="path1183" />
      <path
         d="m 639.83,646.63 v 0 a 15.46,15.46 0 0 1 2.2,10.69 v 0.12 h -1.62 a 8.7,8.7 0 0 0 0,-4.09 6.46,6.46 0 0 0 -2.46,-3.92 l -1.57,8 h -1.51 l 1.51,-10.8 z"
         transform="translate(-158.5,-94.07)"
         fill="#f6b9ad"
         id="path1185" />
      <path
         d="m 649,631.09 c 0,0 0.63,-0.26 0.36,-1.17 -0.27,-0.91 -1.36,-0.6 -1.36,-0.6 0,0 -0.67,1 -0.41,1.33 0.26,0.33 1.41,0.44 1.41,0.44 z"
         transform="translate(-158.5,-94.07)"
         fill="#f6b9ad"
         id="path1187" />
      <path
         d="m 639.75,639.83 c 0,0 8.09,-2.62 9.24,-8.74 l -1.5,-0.46 c 0,0 -6,6.65 -8.48,6.7 -2.48,0.05 0.74,2.5 0.74,2.5 z"
         transform="translate(-158.5,-94.07)"
         fill="#ff5252"
         id="path1189" />
      <path
         d="m 648.71,631.1 0.25,0.08 c -1.15,6.12 -9.24,8.74 -9.24,8.74 l -0.14,-0.11 c 0.95,-0.34 8.06,-3 9.13,-8.71 z"
         transform="translate(-158.5,-94.07)"
         fill="#ffffff"
         opacity="0.2"
         id="path1191" />
      <g
         opacity="0.2"
         id="g1197">
        <path
           d="m 637.58,649.42 -1.57,8 h 0.35 l 1.52,-7.78 a 3.74,3.74 0 0 0 -0.3,-0.22 z"
           transform="translate(-158.5,-94.07)"
           fill="#ffffff"
           id="path1193" />
        <path
           d="m 639.83,646.63 h -0.35 a 15.46,15.46 0 0 1 2.2,10.69 v 0.12 H 642 v -0.12 a 15.46,15.46 0 0 0 -2.17,-10.69 z"
           transform="translate(-158.5,-94.07)"
           fill="#ffffff"
           id="path1195" />
      </g>
      <path
         d="m 648.82,631 c 0,0 0.63,-0.26 0.36,-1.17 a 0.83,0.83 0 0 0 -0.5,-0.57 0.85,0.85 0 0 1 0.67,0.62 c 0.27,0.9 -0.36,1.17 -0.36,1.17 a 4.72,4.72 0 0 1 -1,-0.19 5.16,5.16 0 0 0 0.83,0.14 z"
         transform="translate(-158.5,-94.07)"
         fill="#ffffff"
         opacity="0.2"
         id="path1199" />
      <path
         d="m 635.54,646.51 -3.28,6.92 a 40.62,40.62 0 0 1 5.71,0.69 c 3.63,0.69 5.36,-1 5.36,-1 L 641,646.51 Z"
         transform="translate(-158.5,-94.07)"
         fill="#263238"
         id="path1201" />
      <path
         d="m 636.41,657.4 c 0,0 1.73,0.35 1.38,1 h -3.11 l 0.17,-1 z"
         transform="translate(-158.5,-94.07)"
         fill="#ff5252"
         id="path1203" />
      <path
         d="m 641.94,657.4 c 0,0 1.73,0.35 1.38,1 h -3.11 l 0.17,-1 z"
         transform="translate(-158.5,-94.07)"
         fill="#ff5252"
         id="path1205" />
      <path
         d="m 640.73,631.12 c 0,0 -4.15,5.88 -2.25,8.3 l -7.43,-0.17 c 0,0 2.07,-13.32 9.68,-8.13 z"
         transform="translate(-158.5,-94.07)"
         fill="#fccc63"
         id="path1207" />
      <path
         d="m 640.73,631.12 a 6.31,6.31 0 0 0 -2.9,-1.18 7.32,7.32 0 0 1 2,1 c 0,0 -4.15,5.88 -2.25,8.3 l -6.54,-0.15 v 0.15 l 7.43,0.17 c -1.89,-2.41 2.26,-8.29 2.26,-8.29 z"
         transform="translate(-158.5,-94.07)"
         fill="#ffffff"
         opacity="0.2"
         id="path1209" />
      <path
         d="m 641,646.51 h -0.52 l 2.34,6.57 a 5.28,5.28 0 0 1 -3.44,1.2 5.5,5.5 0 0 0 4,-1.2 z"
         transform="translate(-158.5,-94.07)"
         fill="#ffffff"
         opacity="0.2"
         id="path1211" />
      <path
         d="m 636.41,657.4 h -0.35 c 0,0 1.73,0.35 1.38,1 h 0.35 c 0.35,-0.66 -1.38,-1 -1.38,-1 z"
         transform="translate(-158.5,-94.07)"
         fill="#ffffff"
         opacity="0.2"
         id="path1213" />
      <path
         d="m 641.94,657.4 h -0.35 c 0,0 1.73,0.35 1.38,1 h 0.35 c 0.35,-0.66 -1.38,-1 -1.38,-1 z"
         transform="translate(-158.5,-94.07)"
         fill="#ffffff"
         opacity="0.2"
         id="path1215" />
      <polyline
         points="725.52 400.93 715.88 347.09 746.41 345.6 746.41 400.93 767.3 400.93 788.19 341.47"
         fill="none"
         stroke="#b3b3b3"
         stroke-miterlimit="10"
         id="polyline1217" />
      <rect
         x="704.63"
         y="395.29999"
         width="83.559998"
         height="59.459999"
         rx="27.299999"
         ry="27.299999"
         fill="#3b82f6"
         id="rect1219"
         style="fill:#5cbdb9;fill-opacity:1" />
      <path
         d="m 917.77,489.37 h -24.1 a 29.82,29.82 0 0 0 -29.73,29.73 v 0 c 0,0.68 0,1.34 0.08,2 a 29.82,29.82 0 0 1 29.65,-27.72 h 24.1 a 29.82,29.82 0 0 1 29.65,27.72 c 0,-0.66 0.08,-1.33 0.08,-2 v 0 a 29.82,29.82 0 0 0 -29.73,-29.73 z"
         transform="translate(-158.5,-94.07)"
         opacity="0.05"
         id="path1221" />
      <polygon
         points="722.01,431.2 736.93,442.6 736.93,442.6 740.63,445.57 765.66,413.01 757.77,406.82 738.69,430.99 728.43,423.04 "
         fill="url(#6fa74df0-cae9-46f9-9ace-4bf5394eec23)"
         id="polygon1223"
         style="fill:url(#6fa74df0-cae9-46f9-9ace-4bf5394eec23)" />
      <polygon
         points="722.95,431.18 737.06,441.98 737.06,441.98 740.68,444.69 765.08,412.86 757.92,407.38 738.97,432.1 728.44,424.02 "
         fill="#69f0ae"
         id="polygon1225"
         style="fill:#2ffc98;fill-opacity:1" />
      <path
         d="m 1031.67,328.46 c 0,68.66 -57.36,124.32 -118.43,124.32 -61.07,0 -123.66,-55.66 -123.66,-124.32 0,-68.66 62.59,-124.32 123.67,-124.32 61.08,0 118.42,55.66 118.42,124.32 z"
         transform="translate(-158.5,-94.07)"
         fill="url(#1fbefcf2-1d0d-411f-b7ef-97a6712cae01)"
         id="path1227"
         style="fill:url(#1fbefcf2-1d0d-411f-b7ef-97a6712cae01)" />
      <path
         d="m 1026,328.46 c 0,65.45 -54.67,118.5 -112.89,118.5 -58.22,0 -117.88,-53.05 -117.88,-118.5 0,-65.45 59.68,-118.46 117.89,-118.46 58.21,0 112.88,53 112.88,118.46 z"
         transform="translate(-158.5,-94.07)"
         fill="#3b82f6"
         id="path1229"
         style="fill:#5cbdb9;fill-opacity:1" />
      <rect
         x="736.53003"
         y="357.04999"
         width="26.190001"
         height="9.1499996"
         fill="#3b82f6"
         id="rect1231"
         style="fill:#5cbdb9;fill-opacity:1" />
      <g
         opacity="0.2"
         id="g1235">
        <path
           d="m 913.12,209.55 c -1.39,0 -2.77,0 -4.16,0.1 56.63,2.45 108.73,54.51 108.73,118.4 0,63.89 -52.1,115.95 -108.69,118.4 1.39,0.06 2.78,0.1 4.16,0.1 58.21,0 112.89,-53.05 112.89,-118.5 0,-65.45 -54.72,-118.5 -112.93,-118.5 z"
           transform="translate(-158.5,-94.07)"
           id="path1233" />
      </g>
      <g
         opacity="0.2"
         id="g1239">
        <path
           d="m 801.9,328.46 c 0,-64.51 58,-117 115.38,-118.46 -0.83,0 -1.66,0 -2.49,0 -58.21,0 -117.88,53.05 -117.88,118.5 0,65.45 59.66,118.5 117.87,118.5 0.83,0 1.66,0 2.49,0 C 859.87,445.44 801.9,393 801.9,328.46 Z"
           transform="translate(-158.5,-94.07)"
           fill="#ffffff"
           id="path1237" />
      </g>
      <rect
         x="713.25"
         y="336.26001"
         width="75.260002"
         height="24.530001"
         fill="#3b82f6"
         id="rect1241"
         style="fill:#5cbdb9;fill-opacity:1" />
      <path
         d="m 871.75,218.59 c 0,0 -89.39,102.18 0,219.74 l 29.52,-0.1 c 0,0 -81.49,-97.12 -3.74,-227 L 883,214.54 Z"
         transform="translate(-158.5,-94.07)"
         fill="#ffffff"
         opacity="0.2"
         id="path1243" />
      <path
         d="m 949.5,217 c 0,0 89.39,103.74 0,221.3 l -29.52,-0.1 c 0,0 81.49,-98 3.74,-227.85 l 14.55,2.91 z"
         transform="translate(-158.5,-94.07)"
         fill="#ffffff"
         opacity="0.2"
         id="path1245" />
    </g>
  </g>
</svg>
