<?xml version="1.0" encoding="UTF-8" standalone="no"?>
<!-- Created with Inkscape (http://www.inkscape.org/) -->

<svg
   width="9.5701885mm"
   height="12.700001mm"
   viewBox="0 0 9.5701885 12.700001"
   version="1.1"
   id="svg5"
   sodipodi:docname="SEO.svg"
   inkscape:version="1.1.1 (3bf5ae0d25, 2021-09-20)"
   xmlns:inkscape="http://www.inkscape.org/namespaces/inkscape"
   xmlns:sodipodi="http://sodipodi.sourceforge.net/DTD/sodipodi-0.dtd"
   xmlns="http://www.w3.org/2000/svg"
   xmlns:svg="http://www.w3.org/2000/svg">
  <sodipodi:namedview
     id="namedview7"
     pagecolor="#ffffff"
     bordercolor="#cccccc"
     borderopacity="1"
     inkscape:pageshadow="0"
     inkscape:pageopacity="1"
     inkscape:pagecheckerboard="0"
     inkscape:document-units="mm"
     showgrid="false"
     inkscape:zoom="16"
     inkscape:cx="-14.125"
     inkscape:cy="32.1875"
     inkscape:window-width="3840"
     inkscape:window-height="2066"
     inkscape:window-x="2869"
     inkscape:window-y="-11"
     inkscape:window-maximized="1"
     inkscape:current-layer="layer1" />
  <defs
     id="defs2" />
  <g
     inkscape:label="Layer 1"
     inkscape:groupmode="layer"
     id="layer1"
     transform="translate(-113.72124,-142.29072)">
    <g
       id="g21666"
       transform="matrix(0.26458333,0,0,0.26458333,111.89175,142.02614)">
      <g
         id="g21582">
        <path
           class="st7"
           d="M 41.03586,1.08364 C 40.81075,0.95281 40.49912,0.97109 40.15547,1.16949 L 8.15094,19.64732 c -0.68569,0.39588 -1.23857,1.3535 -1.23633,2.1382 l 0.06643,25.39545 c 0.00109,0.38943 0.13872,0.6637 0.36087,0.79283 L 8.9638,48.91633 C 8.74162,48.78723 8.60402,48.51296 8.6029,48.12349 L 8.53646,22.72805 C 8.53425,21.94334 9.08713,20.98573 9.77282,20.58985 L 41.77736,2.11202 c 0.34365,-0.19841 0.65528,-0.21666 0.88039,-0.08585 z"
           id="path21556"
           style="fill:#62bfbb;fill-opacity:1" />
        <g
           id="g21560">
          <path
             class="st4"
             d="m 41.77735,2.11203 c 0.68291,-0.39428 1.2394,-0.07715 1.24162,0.70756 l 0.06642,25.39545 c 0.0022,0.78472 -0.55066,1.74233 -1.23356,2.13661 L 9.84731,48.82948 C 9.16162,49.22537 8.60513,48.90824 8.6029,48.12352 L 8.53648,22.72807 C 8.53426,21.94335 9.08713,20.98574 9.77283,20.58985 Z"
             id="path21558"
             style="fill:#0baca5;fill-opacity:1" />
        </g>
        <g
           id="g21566">
          <g
             id="g21564">
            <polygon
               class="st2"
               points="41.48254,6.74696 41.53741,28.75269 10.15168,46.87325 10.0968,24.86752 "
               id="polygon21562" />
          </g>
        </g>
        <g
           id="g21580">
          <g
             id="g21570">
            <path
               class="st13"
               d="M 36.77227,6.72606 C 37.123,6.52357 37.40855,6.6863 37.40969,7.08931 37.41083,7.49232 37.12713,7.98159 36.7764,8.18409 36.42751,8.38552 36.14196,8.2249 36.14082,7.82189 36.13968,7.41888 36.42338,6.9275 36.77227,6.72606 Z"
               id="path21568" />
          </g>
          <g
             id="g21574">
            <path
               class="st13"
               d="M 40.84512,4.37507 C 41.19585,4.17258 41.4814,4.33531 41.48254,4.73832 41.48368,5.14133 41.19998,5.6306 40.84925,5.8331 40.50036,6.03453 40.21481,5.87391 40.21367,5.4709 40.21253,5.06789 40.49622,4.5765 40.84512,4.37507 Z"
               id="path21572" />
          </g>
          <g
             id="g21578">
            <path
               class="st13"
               d="m 38.80869,5.55033 c 0.35073,-0.20249 0.63628,-0.03976 0.63742,0.36325 0.0011,0.40301 -0.28256,0.89228 -0.63329,1.09478 -0.35073,0.20249 -0.63444,0.04081 -0.63558,-0.3622 -0.0011,-0.40301 0.28073,-0.89333 0.63145,-1.09583 z"
               id="path21576" />
          </g>
        </g>
      </g>
      <g
         id="g21648">
        <g
           id="g21612">
          <path
             class="st13"
             d="m 29.15597,27.54902 9.14851,-5.28189 c 0.34112,-0.19694 0.65051,-0.21527 0.87414,-0.08529 l 1.22299,0.71072 c -0.22363,-0.12996 -0.533,-0.11166 -0.87414,0.08529 l -9.14848,5.28189 c -0.6786,0.39179 -1.22799,1.34336 -1.22577,2.12631 l 0.02981,10.50913 c 0.0011,0.38935 0.1384,0.66301 0.35962,0.79158 L 28.31966,40.97601 C 28.09841,40.84746 27.96112,40.57378 27.96001,40.18443 L 27.93022,29.6753 c -0.0022,-0.78292 0.54717,-1.73451 1.22575,-2.12628 z"
             id="path21584"
             style="fill:#b1efec;fill-opacity:1" />
          <g
             id="g21588">
            <path
               class="st0"
               d="m 30.37898,28.25976 c -0.67859,0.39178 -1.22798,1.34336 -1.22576,2.12629 l 0.02979,10.50914 c 0.0022,0.78294 0.5552,1.09806 1.23379,0.70628 l 9.14849,-5.28188 c 0.67859,-0.39179 1.22797,-1.34336 1.22575,-2.12629 L 40.76125,23.68416 c -0.0022,-0.78293 -0.55519,-1.09806 -1.23379,-0.70627 z"
               id="path21586"
               style="fill:#62bfbb;fill-opacity:1" />
          </g>
          <g
             id="g21610">
            <g
               id="g21592">
              <path
                 class="st1"
                 d="m 39.6567,25.51173 0.0748,-0.04318 0.02306,8.13488 -0.0748,0.04318 c -0.63704,0.36779 -1.1533,1.26198 -1.15122,1.994 l 2.5e-4,0.08911 -7.07948,4.08733 -2.5e-4,-0.08911 c -0.0021,-0.73202 -0.52171,-1.02813 -1.15876,-0.66032 l -0.07754,0.04477 -0.02306,-8.13488 0.07753,-0.04476 c 0.63705,-0.3678 1.15331,-1.262 1.15124,-1.99401 l -2.5e-4,-0.08911 7.07948,-4.08734 2.5e-4,0.08911 c 0.0021,0.73199 0.52172,1.02812 1.15875,0.66033 z m -0.05497,8.00778 -0.02208,-7.78797 c -0.65933,0.33604 -1.19286,0.032 -1.23378,-0.70309 l -6.77759,3.91304 c -0.03662,0.77985 -0.56391,1.69636 -1.223,2.12151 l 0.02208,7.78797 c 0.65933,-0.33923 1.19008,-0.03358 1.231,0.70151 l 6.77759,-3.91304 c 0.03663,-0.77986 0.5667,-1.69797 1.22578,-2.11993"
                 id="path21590"
                 style="fill:#7bdad6;fill-opacity:1" />
            </g>
            <g
               id="g21596">
              <polygon
                 class="st1"
                 points="35.70823,33.39024 35.70981,33.80465 31.24497,36.38242 31.24339,35.96802 "
                 id="polygon21594"
                 style="fill:#7bdad6;fill-opacity:1" />
            </g>
            <g
               id="g21600">
              <polygon
                 class="st1"
                 points="38.70396,29.30164 38.70554,29.71604 31.23829,34.02726 31.23671,33.61285 "
                 id="polygon21598"
                 style="fill:#7bdad6;fill-opacity:1" />
            </g>
            <g
               id="g21604">
              <polygon
                 class="st1"
                 points="38.7073,30.47922 38.70888,30.89362 31.24163,35.20484 31.24005,34.79044 "
                 id="polygon21602"
                 style="fill:#7bdad6;fill-opacity:1" />
            </g>
            <g
               id="g21608">
              <polygon
                 class="st11"
                 points="38.54985,26.73585 38.55231,27.60471 31.37587,31.74803 31.37341,30.87917 "
                 id="polygon21606"
                 style="fill:#004b49;fill-opacity:1" />
            </g>
          </g>
        </g>
        <g
           id="g21646">
          <g
             id="g21628">
            <g
               class="st8"
               id="g21626">
              <g
                 id="g21620">
                <polygon
                   class="st11"
                   points="35.45541,41.45153 35.7286,42.18804 35.98616,42.3377 35.71298,41.60122 "
                   id="polygon21614"
                   style="fill:#1a7c6c;fill-opacity:1" />
                <polygon
                   class="st11"
                   points="36.72927,39.37043 36.4717,39.22075 37.22649,41.32322 37.48404,41.4729 "
                   id="polygon21616"
                   style="fill:#1a7c6c;fill-opacity:1" />
                <polygon
                   class="st11"
                   points="36.05562,38.3388 37.39253,37.56694 37.13496,37.41726 35.79807,38.18911 34.71463,42.28473 34.97217,42.43439 "
                   id="polygon21618"
                   style="fill:#1a7c6c;fill-opacity:1" />
              </g>
              <g
                 id="g21624">
                <polygon
                   class="st9"
                   points="36.72926,39.37043 35.98615,42.33772 35.71297,41.60121 34.97218,42.43439 36.05562,38.3388 37.39252,37.56694 38.49058,40.40305 37.74982,40.42524 37.48404,41.47291 "
                   id="polygon21622"
                   style="fill:#004b49;fill-opacity:1" />
              </g>
            </g>
          </g>
          <g
             id="g21644">
            <g
               class="st8"
               id="g21642">
              <g
                 id="g21632">
                <path
                   class="st7"
                   d="m 34.3113,38.3304 c 0,0.59265 0.20918,1.01096 0.54828,1.20745 l 0.44684,0.25988 c -0.3391,-0.19649 -0.54826,-0.61482 -0.54826,-1.20745 -0.0032,-1.19793 0.83664,-2.65575 1.87931,-3.25788 0.5229,-0.30107 0.99827,-0.32961 1.34055,-0.12994 l -0.44684,-0.25988 c -0.34227,-0.19964 -0.81765,-0.17113 -1.34056,0.12995 -1.04266,0.60213 -1.88249,2.05994 -1.87932,3.25787 z"
                   id="path21630"
                   style="fill:#74cac6;fill-opacity:1" />
              </g>
              <g
                 id="g21636">
                <ellipse
                   class="st4"
                   cx="36.643108"
                   cy="37.499962"
                   rx="2.6582899"
                   ry="1.53976"
                   transform="matrix(0.50245,-0.8646,0.8646,0.50245,-14.19097,50.33978)"
                   id="ellipse21634"
                   style="fill:#0baca5;fill-opacity:1" />
              </g>
              <g
                 id="g21640">
                <polygon
                   class="st2"
                   points="37.52775,38.13334 36.79332,38.04338 36.09522,38.87015 36.21601,37.97896 35.69514,37.69646 36.41208,37.16342 36.72935,36.23273 37.05263,36.7936 37.77025,36.49839 37.221,37.43443 "
                   id="polygon21638" />
              </g>
            </g>
          </g>
        </g>
      </g>
      <path
         class="st11"
         d="M 37.72798,13.10737 C 37.72637,12.54186 37.32355,12.30483 36.8249,12.59275 L 13.16276,26.25409 c -0.49215,0.28415 -0.89874,0.98844 -0.89719,1.55401 l 0.0064,3.28377 c 0.0016,0.5655 0.41093,0.79883 0.90308,0.51462 L 36.83724,17.94515 c 0.49865,-0.28786 0.8988,-0.98844 0.89719,-1.55401 z M 13.1739,31.1898 c -0.29789,0.17197 -0.53827,0.03498 -0.53926,-0.3073 l -0.0064,-3.28377 c -9.9e-4,-0.34227 0.23784,-0.75593 0.53579,-0.92796 l 19.76361,-11.41052 0.0099,4.51897 z"
         id="path21650"
         style="fill:#004b49;fill-opacity:1" />
      <g
         id="g21654">
        <path
           class="st2"
           d="m 36.14058,16.08666 0.90928,0.51665 -0.42388,0.7342 -0.90821,-0.51851 c -0.17317,0.21329 -0.36695,0.38186 -0.56084,0.4938 -0.28985,0.16735 -0.57987,0.20803 -0.80103,0.08199 -0.44294,-0.25241 -0.44529,-1.07928 -0.0052,-1.84151 0.22003,-0.3811 0.50994,-0.67552 0.80022,-0.84311 0.29028,-0.16759 0.58091,-0.20835 0.80238,-0.08215 0.37018,0.20972 0.43152,0.81945 0.1873,1.45864 z m -0.42636,0.24367 c 0.30632,-0.53057 0.30469,-1.10502 -0.0036,-1.28073 -0.15416,-0.08785 -0.35623,-0.05961 -0.55803,0.0569 -0.20181,0.11652 -0.40338,0.32131 -0.55653,0.58659 -0.30632,0.53057 -0.30469,1.10502 0.0036,1.28073 0.15416,0.08785 0.35622,0.05962 0.55803,-0.0569 0.2018,-0.11651 0.40337,-0.32132 0.55653,-0.58659"
           id="path21652" />
      </g>
      <g
         id="g21664">
        <g
           id="g21658">
          <polygon
             class="st6"
             points="17.91143,39.04858 17.90199,35.72433 13.15454,38.46529 13.16398,41.78953 "
             id="polygon21656"
             style="fill:#57aaa2;fill-opacity:1" />
        </g>
        <g
           id="g21662">
          <polygon
             class="st11"
             points="24.43196,35.28393 24.42252,31.95969 19.67507,34.70064 19.68451,38.02488 "
             id="polygon21660"
             style="fill:#004b49;fill-opacity:1" />
        </g>
      </g>
    </g>
  </g>
  <style
     type="text/css"
     id="style1179">
	.st0{fill:#B7C5FD;}
	.st1{fill:#9AADFD;}
	.st2{fill:#FFFFFF;}
	.st3{fill:#3955D1;}
	.st4{fill:#4466FB;}
	.st5{fill:#AABAFD;}
	.st6{fill:#798FFE;}
	.st7{fill:#6BB5FB;}
	.st8{enable-background:new    ;}
	.st9{fill:#1B2A4F;}
	.st10{fill:url(#);}
	.st11{fill:#384E85;}
	.st12{fill:#2E4277;}
	.st13{fill:#D9DDF6;}
	.st14{fill:#535D88;}
	.st15{fill:#2B3C67;}
	.st16{fill:#8FCCFF;}
	.st17{fill:#8CA1FD;}
	.st18{opacity:0.3;}
	.st19{opacity:0.3;fill:#4466FB;}
	.st20{opacity:0.2;}
</style>
  <style
     type="text/css"
     id="style21554">
	.st0{fill:#B7C5FD;}
	.st1{fill:#9AADFD;}
	.st2{fill:#FFFFFF;}
	.st3{fill:#3955D1;}
	.st4{fill:#4466FB;}
	.st5{fill:#AABAFD;}
	.st6{fill:#798FFE;}
	.st7{fill:#6BB5FB;}
	.st8{enable-background:new    ;}
	.st9{fill:#1B2A4F;}
	.st10{fill:url(#);}
	.st11{fill:#384E85;}
	.st12{fill:#2E4277;}
	.st13{fill:#D9DDF6;}
	.st14{fill:#535D88;}
	.st15{fill:#2B3C67;}
	.st16{fill:#8FCCFF;}
	.st17{fill:#8CA1FD;}
	.st18{opacity:0.3;}
	.st19{opacity:0.3;fill:#4466FB;}
	.st20{opacity:0.2;}
</style>
</svg>
