<svg width="1473" height="255" viewBox="0 0 1473 255" fill="none" xmlns="http://www.w3.org/2000/svg">
<g clip-path="url(#clip0_218_185)">
<path d="M18.124 127.5C18.124 170.796 43.2848 208.211 79.77 225.942L27.5939 82.9856C21.5248 96.589 18.124 111.643 18.124 127.5ZM201.345 121.981C201.345 108.463 196.489 99.1011 192.325 91.8145C186.78 82.8046 181.583 75.1745 181.583 66.1646C181.583 56.1098 189.209 46.7502 199.951 46.7502C200.436 46.7502 200.895 46.8105 201.368 46.8376C181.908 29.0092 155.981 18.124 127.505 18.124C89.292 18.124 55.6727 37.7298 36.1147 67.4258C38.681 67.5028 41.0994 67.5569 43.1537 67.5569C54.5946 67.5569 72.3044 66.1687 72.3044 66.1687C78.2007 65.8211 78.8959 74.4814 73.0058 75.1787C73.0058 75.1787 67.0803 75.8759 60.4868 76.2214L100.319 194.699L124.256 122.909L107.214 76.2172C101.324 75.8717 95.744 75.1745 95.744 75.1745C89.8498 74.829 90.5407 65.817 96.435 66.1646C96.435 66.1646 114.499 67.5528 125.246 67.5528C136.685 67.5528 154.397 66.1646 154.397 66.1646C160.298 65.817 160.991 74.4773 155.099 75.1745C155.099 75.1745 149.161 75.8717 142.58 76.2172L182.108 193.798L193.018 157.34C197.746 142.211 201.345 131.345 201.345 121.981ZM129.424 137.068L96.6057 232.431C106.404 235.312 116.767 236.887 127.505 236.887C140.242 236.887 152.457 234.685 163.828 230.687C163.534 230.219 163.268 229.721 163.049 229.18L129.424 137.068ZM223.482 75.0226C223.952 78.5067 224.219 82.2468 224.219 86.2699C224.219 97.3695 222.146 109.847 215.902 125.448L182.491 222.048C215.009 203.085 236.881 167.855 236.881 127.503C236.883 108.486 232.025 90.6032 223.482 75.0226ZM127.505 0C57.2004 0 0 57.1962 0 127.5C0 197.813 57.2004 255.007 127.505 255.007C197.807 255.007 255.016 197.813 255.016 127.5C255.013 57.1962 197.807 0 127.505 0ZM127.505 249.163C60.4243 249.163 5.84637 194.585 5.84637 127.5C5.84637 60.4202 60.4222 5.84637 127.505 5.84637C194.583 5.84637 249.157 60.4202 249.157 127.5C249.157 194.585 194.583 249.163 127.505 249.163Z" fill="#464342"/>
</g>
<path fill-rule="evenodd" clip-rule="evenodd" d="M359.66 52.4399H566.44C569.548 52.4399 572.625 53.0523 575.497 54.2419C578.368 55.4316 580.977 57.1752 583.174 59.3733C585.371 61.5714 587.113 64.1809 588.302 67.0526C589.49 69.9243 590.101 73.002 590.1 76.1099V155C590.1 158.107 589.488 161.183 588.299 164.053C587.11 166.923 585.367 169.53 583.17 171.727C580.972 173.923 578.364 175.665 575.494 176.853C572.623 178.04 569.547 178.651 566.44 178.65H492.28L502.43 203.6L457.63 178.65H359.63C353.362 178.642 347.353 176.147 342.923 171.713C338.492 167.279 336.003 161.268 336 155V76.1099C336 69.834 338.492 63.815 342.929 59.3763C347.366 54.9376 353.384 52.4426 359.66 52.4399Z" fill="#7D57A4"/>
<path d="M348.79 73.87C349.573 72.892 350.56 72.0976 351.683 71.543C352.807 70.9883 354.038 70.6869 355.29 70.66C360.563 70.2934 363.59 72.78 364.37 78.12C367.623 99.78 371.107 118.167 374.82 133.28L397.58 90C399.64 86.0934 402.243 84.0267 405.39 83.8C409.95 83.48 412.8 86.3834 413.94 92.51C416.082 104.625 419.374 116.509 423.77 128C426.503 101.64 431.067 82.5834 437.46 70.83C438.077 69.5118 439.042 68.3868 440.25 67.5763C441.459 66.7657 442.866 66.3003 444.32 66.23C446.687 66.0355 449.036 66.7708 450.87 68.28C451.806 68.9867 452.575 69.8904 453.123 70.9273C453.67 71.9641 453.984 73.1087 454.04 74.28C454.207 76.0089 453.859 77.7486 453.04 79.28C448.987 86.8 445.653 99.3034 443.04 116.79C440.46 133.67 439.507 146.873 440.18 156.4C440.416 158.735 439.997 161.09 438.97 163.2C438.471 164.265 437.694 165.176 436.721 165.836C435.748 166.496 434.614 166.881 433.44 166.95C430.7 167.15 427.97 165.86 425.22 163.1C415.567 153.2 407.9 138.47 402.22 118.91C395.553 132.243 390.553 142.217 387.22 148.83C381.12 160.563 375.893 166.58 371.54 166.88C368.713 167.08 366.307 164.707 364.32 159.76C358.987 146.18 353.267 119.907 347.16 80.94C346.919 79.7133 346.939 78.4493 347.22 77.231C347.501 76.0126 348.036 74.8673 348.79 73.87Z" fill="white"/>
<path d="M572 90.19C570.284 87.0933 567.907 84.4127 565.038 82.3386C562.169 80.2646 558.879 78.8481 555.4 78.19C553.545 77.7979 551.656 77.5969 549.76 77.59C539.813 77.59 531.687 82.7666 525.38 93.12C520.01 101.924 517.214 112.057 517.31 122.37C517.31 130.37 518.977 137.227 522.31 142.94C524.024 146.04 526.402 148.723 529.273 150.797C532.144 152.872 535.439 154.286 538.92 154.94C540.77 155.341 542.657 155.545 544.55 155.55C554.597 155.55 562.72 150.373 568.92 140.02C574.29 131.153 577.088 120.966 577 110.6C577 102.6 575.333 95.7966 572 90.19ZM558.9 119C557.48 125.8 554.847 130.923 551 134.37C547.953 137.11 545.16 138.227 542.62 137.72C540.08 137.213 538.043 134.973 536.51 131C535.335 127.986 534.715 124.785 534.68 121.55C534.67 118.991 534.925 116.437 535.44 113.93C536.43 109.494 538.293 105.299 540.92 101.59C544.373 96.5166 547.98 94.3866 551.74 95.2C554.28 95.7133 556.313 97.9466 557.84 101.9C559.011 104.911 559.628 108.109 559.66 111.34C559.673 113.913 559.418 116.48 558.9 119Z" fill="white"/>
<path d="M506.92 90.19C505.204 87.0933 502.827 84.4127 499.958 82.3386C497.089 80.2646 493.799 78.8481 490.32 78.19C488.465 77.7979 486.576 77.5969 484.68 77.59C474.727 77.59 466.603 82.7666 460.31 93.12C454.932 101.922 452.132 112.056 452.23 122.37C452.23 130.37 453.897 137.227 457.23 142.94C458.941 146.042 461.318 148.727 464.19 150.802C467.062 152.877 470.357 154.29 473.84 154.94C475.69 155.341 477.577 155.545 479.47 155.55C489.523 155.55 497.65 150.373 503.85 140.02C509.239 131.157 512.06 120.972 512 110.6C512 102.6 510.333 95.7966 507 90.19H506.92ZM493.82 119C492.4 125.813 489.76 130.943 485.9 134.39C482.847 137.13 480.053 138.247 477.52 137.74C474.987 137.233 472.957 134.987 471.43 131C470.255 127.986 469.635 124.785 469.6 121.55C469.59 118.991 469.845 116.437 470.36 113.93C471.359 109.497 473.221 105.304 475.84 101.59C479.28 96.53 482.887 94.4066 486.66 95.22C489.2 95.7333 491.23 97.9666 492.75 101.92C493.924 104.931 494.544 108.129 494.58 111.36C494.59 113.919 494.336 116.473 493.82 118.98V119Z" fill="white"/>
<path d="M616.37 89.3C609.457 96.1733 606 104.883 606 115.43C606 126.81 609.427 136 616.28 143C623.133 150 632.097 153.487 643.17 153.46C646.838 153.371 650.479 152.803 654 151.77V135C650.937 135.97 647.752 136.505 644.54 136.59C639.04 136.59 634.64 134.743 631.34 131.05C628.04 127.357 626.393 122.34 626.4 116C626.4 110.113 628.037 105.26 631.31 101.44C632.805 99.6158 634.694 98.1536 636.834 97.163C638.975 96.1724 641.312 95.6791 643.67 95.72C647.166 95.7449 650.642 96.2496 654 97.22V80.37C650.295 79.4271 646.483 78.9666 642.66 79C632.067 79 623.303 82.4333 616.37 89.3ZM688.45 79C678.87 79 671.387 82.1867 666 88.56C660.613 94.9333 657.947 103.82 658 115.22C658 127.58 660.667 137.033 666 143.58C671.333 150.127 679.087 153.403 689.26 153.41C699.093 153.41 706.667 150.133 711.98 143.58C717.293 137.027 719.967 127.833 720 116C720 104.14 717.3 95.0133 711.9 88.62C706.5 82.2267 698.683 79.02 688.45 79ZM696.68 133C695.822 134.398 694.608 135.542 693.161 136.315C691.715 137.089 690.089 137.463 688.45 137.4C686.899 137.446 685.367 137.059 684.024 136.281C682.681 135.504 681.582 134.368 680.85 133C679.11 130.08 678.24 124.237 678.24 115.47C678.24 101.823 681.683 95 688.57 95C695.903 95 699.57 101.903 699.57 115.71C699.55 124.283 698.587 130.047 696.68 133ZM771.37 81L767.65 96.88C766.683 100.947 765.78 105.113 764.94 109.38L762.86 120.38C760.86 109.4 758.15 96.2833 754.73 81.03H730.58L721.51 151.73H739.6L744.52 103.01L756.87 151.73H769.8L781.58 103L786.69 151.62H805.6L796 81H771.37ZM857.89 81L854.17 96.88C853.203 100.947 852.3 105.113 851.46 109.38L849.38 120.38C847.38 109.4 844.667 96.2833 841.24 81.03H817.1L808 151.66H826.09L831 102.94L843.36 151.66H856.28L868.1 103L873.21 151.62H892.12L882.54 81H857.89ZM916.6 123.7H933.6V109H916.6V96H936.14V81H897.5V151.7H936.27V136.57H916.6V123.7ZM990.07 112.55C992.662 108.434 993.601 103.49 992.7 98.7108C991.798 93.9311 989.123 89.6692 985.21 86.78C980.003 82.9267 972.903 81 963.91 81H941.65V151.7H960.76V119.46H961.07L976.51 151.66H996.69L981.43 119.78C984.994 118.331 988.016 115.803 990.07 112.55ZM960.76 111.41V94.62C965.287 94.7267 968.53 95.4867 970.49 96.9C972.45 98.3133 973.43 100.647 973.43 103.9C973.43 108.767 969.207 111.27 960.76 111.41ZM1004.34 89.3C997.407 96.1733 993.94 104.883 993.94 115.43C993.94 126.81 997.373 135.983 1004.24 142.95C1011.11 149.917 1020.07 153.403 1031.13 153.41C1034.81 153.34 1038.46 152.789 1042 151.77V135C1038.94 135.97 1035.75 136.505 1032.54 136.59C1027.03 136.59 1022.63 134.743 1019.33 131.05C1016.03 127.357 1014.37 122.34 1014.36 116C1014.36 110.113 1016 105.26 1019.28 101.44C1020.78 99.6158 1022.66 98.1536 1024.8 97.163C1026.94 96.1724 1029.28 95.6791 1031.64 95.72C1035.15 95.7427 1038.63 96.2475 1042 97.22V80.37C1038.29 79.4245 1034.46 78.964 1030.63 79C1020.04 79 1011.27 82.4333 1004.34 89.3ZM1066.34 136.57V123.7H1083.34V109H1066.34V96H1085.88V81H1047.23V151.7H1086V136.57H1066.34Z" fill="black"/>
<g clip-path="url(#clip1_218_185)">
<path d="M1238.59 74.9481H1296.37V80.5149H1243.88V122.413H1293.24V127.979H1243.88V173.979H1296.97V179.546H1238.59V74.9481ZM1301.54 74.9481H1307.68L1334.89 120.948L1362.69 74.9481L1400.51 16.5181L1338.38 125.782L1370.4 179.546H1364.02L1334.89 130.616L1305.63 179.546H1299.37L1331.64 125.782L1301.54 74.9481ZM1372.68 80.5149V74.9481H1438.53V80.5149H1408.19V179.546H1402.9V80.5149H1372.68Z" fill="black"/>
<path d="M1166.3 74.9481H1172.92L1264.22 240.547L1226.49 179.546L1171.84 82.8589L1171.6 179.546H1166.3V74.9481Z" fill="black"/>
<path d="M1437.99 172.299C1439.09 172.299 1439.89 171.283 1439.89 169.969C1439.89 168.656 1439.09 167.64 1437.99 167.64C1436.91 167.64 1436.1 168.656 1436.1 169.969C1436.1 171.283 1436.91 172.299 1437.99 172.299ZM1443.2 166.17C1443.2 170.047 1445.5 172.581 1448.87 172.581C1452.45 172.581 1454.61 169.969 1454.61 165.435V149.471H1451.73V165.419C1451.73 167.937 1450.68 169.281 1448.84 169.281C1447.19 169.281 1446.07 168.03 1446.03 166.17H1443.2ZM1458.39 165.967C1458.59 170.001 1461.36 172.581 1465.48 172.581C1469.89 172.581 1472.65 169.875 1472.65 165.56C1472.65 162.167 1471.08 160.291 1467.26 159.212L1465.21 158.602C1462.79 157.914 1461.81 156.991 1461.81 155.381C1461.81 153.348 1463.33 152.019 1465.61 152.019C1467.78 152.019 1469.27 153.317 1469.54 155.397H1472.35C1472.18 151.597 1469.43 148.923 1465.65 148.923C1461.59 148.923 1458.89 151.597 1458.89 155.616C1458.89 158.93 1460.42 160.9 1463.78 161.854L1466.18 162.558C1468.64 163.261 1469.72 164.293 1469.72 166.013C1469.72 168.015 1468.02 169.469 1465.7 169.469C1463.22 169.469 1461.49 168.109 1461.25 165.967H1458.39Z" fill="black"/>
</g>
<defs>
<clipPath id="clip0_218_185">
<rect width="256" height="255" fill="white"/>
</clipPath>
<clipPath id="clip1_218_185">
<rect width="307" height="224" fill="white" transform="translate(1166 16)"/>
</clipPath>
</defs>
</svg>
