<svg width="758" height="433" viewBox="0 0 758 433" fill="none" xmlns="http://www.w3.org/2000/svg">
<path d="M1.25781 250.194C4.75271 78.4708 133.124 62.0289 198.862 96.9962C334.331 -76.9598 516.52 13.4835 563.124 136.088C563.124 136.088 652.796 107.715 726.132 188.688C795.502 257.984 740.474 430.125 652.651 431.582C453.796 434.878 254.984 430.364 58.5902 431.582C58.5902 431.582 1.25781 398.385 1.25781 250.194Z" fill="#00E6FF"/>
<path d="M1.48497 264.062C0.273446 292.431 3.90803 333.664 12.3887 360.08C37.4089 438.016 54.9289 432.393 54.9289 432.393C58.5882 432.393 172.029 432.393 213.502 432.393V264.062H1.48497Z" fill="#FFD79A"/>
<path d="M142.755 76.4893V81.2791L142.773 76.4893H142.755ZM142.755 81.2791C98.9347 76.4765 64.0732 94.2763 37.7293 126.31C17.0862 151.659 6.38726 181.836 2.49529 217.214C0.500065 233.002 -0.434271 249.005 0.193481 265.223C0.27548 282.755 1.14237 299.526 3.58198 315.383H142.773L142.755 81.2791Z" fill="#9FFFB3"/>
<path opacity="0.94" d="M374.531 0.238834C256.211 -5.59871 199.107 97.5236 198.187 96.4966C180.692 87.6612 165.521 82.5479 142.773 81.0591V264.027H374.531V0.238834Z" fill="#FB8B74"/>
<path opacity="0.94" d="M374.52 264.062H213.505V432.394L374.52 432.469V264.062Z" fill="#9D89FF"/>
</svg>
