<?xml version="1.0" encoding="UTF-8" standalone="no"?>
<!-- Created with Inkscape (http://www.inkscape.org/) -->

<svg
   version="1.1"
   id="svg824"
   width="83.005875"
   height="54.170055"
   viewBox="0 0 83.005875 54.170055"
   sodipodi:docname="WWD.2.svg"
   inkscape:version="1.1.1 (3bf5ae0d25, 2021-09-20)"
   xmlns:inkscape="http://www.inkscape.org/namespaces/inkscape"
   xmlns:sodipodi="http://sodipodi.sourceforge.net/DTD/sodipodi-0.dtd"
   xmlns="http://www.w3.org/2000/svg"
   xmlns:svg="http://www.w3.org/2000/svg">
  <defs
     id="defs828">
    <clipPath
       clipPathUnits="userSpaceOnUse"
       id="clipPath1459">
      <rect
         style="fill:#283b52;stroke-width:0.87685"
         id="rect1461"
         width="340.18118"
         height="196.5"
         x="340.72018"
         y="196.5"
         clip-path="none" />
    </clipPath>
    <clipPath
       clipPathUnits="userSpaceOnUse"
       id="clipPath1568">
      <rect
         style="fill:#283b52;stroke-width:0.87685"
         id="rect1570"
         width="146.69897"
         height="102.53154"
         x="445.50516"
         y="250.80792" />
    </clipPath>
  </defs>
  <sodipodi:namedview
     id="namedview826"
     pagecolor="#ffffff"
     bordercolor="#cccccc"
     borderopacity="1"
     inkscape:pageshadow="0"
     inkscape:pageopacity="1"
     inkscape:pagecheckerboard="0"
     showgrid="false"
     inkscape:object-paths="false"
     inkscape:snap-intersection-paths="false"
     inkscape:snap-smooth-nodes="false"
     inkscape:object-nodes="false"
     inkscape:snap-midpoints="false"
     inkscape:snap-object-midpoints="false"
     inkscape:zoom="4"
     inkscape:cx="-32.5"
     inkscape:cy="64.75"
     inkscape:window-width="3840"
     inkscape:window-height="2066"
     inkscape:window-x="2869"
     inkscape:window-y="-11"
     inkscape:window-maximized="1"
     inkscape:current-layer="g830"
     inkscape:snap-nodes="false"
     inkscape:snap-others="false" />
  <g
     inkscape:groupmode="layer"
     inkscape:label="Image"
     id="g830"
     transform="translate(-198.73009,-155.99713)">
    <path
       style="fill:#00e6ff;fill-opacity:1;stroke:none;stroke-width:1.00227px;stroke-linecap:butt;stroke-linejoin:miter;stroke-opacity:1"
       d="m 198.71922,186.94243 c 0.51316,-21.5487 14.44183,-23.34613 21.63013,-18.91445 14.99868,-21.7419 35.23079,-10.3344 40.25303,5.08301 0,0 9.86271,-3.50157 17.85013,6.70877 7.56101,8.74225 0.7484,29.59675 -8.27205,30.51741 -21.63116,-0.0584 -43.29313,-0.3739 -64.88335,-0.16754 0,0 -6.68964,-4.62938 -6.57789,-23.22717 z"
       id="path1638"
       sodipodi:nodetypes="scccccss" />
    <path
       id="rect6480"
       style="fill:#ffd79a;fill-opacity:1;stroke:none;stroke-width:0.12584;stroke-miterlimit:4;stroke-dasharray:none;stroke-opacity:1"
       d="m 198.77523,189.01139 c 0.006,3.87789 0.55914,8.23637 1.26873,10.95974 2.82841,10.85526 5.42014,10.1963 5.42014,10.1963 5.44096,0.0703 10.93512,0.0361 16.37681,-0.002 l -0.002,-21.1536 z"
       sodipodi:nodetypes="cscccc" />
    <path
       id="rect7245"
       style="fill:#7eff99;fill-opacity:1;stroke:none;stroke-width:0.10465;stroke-miterlimit:4;stroke-dasharray:none;stroke-opacity:1"
       d="m 214.39356,165.46168 -0.01,0.64867 0.0117,-0.64867 z m -0.006,0.64477 c -4.80814,-0.59928 -8.75241,1.5005 -11.54917,5.54061 -2.26495,3.16309 -3.43507,6.95979 -3.86207,11.37433 -0.22292,1.97247 -0.30122,4.00403 -0.25647,5.99451 -0.0497,1.77379 0.44191,6.25722 0.46927,6.25722 l 15.20625,-0.002 z"
       sodipodi:nodetypes="ccccccccccc" />
    <path
       id="rect8954"
       style="opacity:0.94;fill:#fb8b74;fill-opacity:1;stroke:none;stroke-width:0.13264;stroke-miterlimit:4;stroke-dasharray:none;stroke-opacity:1"
       d="m 239.6372,155.98379 c -13.01824,0.0145 -19.22661,12.1456 -19.32754,12.01744 -1.90787,-1.14155 -3.46906,-1.67775 -5.92204,-1.89478 l 0.008,22.90494 h 25.20904 z"
       sodipodi:nodetypes="cccccc" />
    <rect
       style="opacity:0.94;fill:#9d89ff;fill-opacity:1;stroke:none;stroke-width:0.392673;stroke-miterlimit:4;stroke-dasharray:none;stroke-opacity:1"
       id="rect10951"
       width="17.764757"
       height="21.153608"
       x="221.84091"
       y="189.0114" />
    <text
       xml:space="preserve"
       style="font-style:normal;font-weight:normal;font-size:40px;line-height:1.25;font-family:sans-serif;fill:#000000;fill-opacity:1;stroke:none"
       x="292.75"
       y="207.5"
       id="text22829"><tspan
         sodipodi:role="line"
         id="tspan22827"
         x="292.75"
         y="207.5"
         style="fill:#324568;fill-opacity:1" /></text>
  </g>
</svg>
