<?xml version="1.0" encoding="UTF-8" standalone="no"?>
<!-- Created with Inkscape (http://www.inkscape.org/) -->

<svg
   version="1.1"
   id="svg824"
   width="83.005875"
   height="54.170055"
   viewBox="0 0 83.005875 54.170055"
   sodipodi:docname="WWD.2.svg"
   inkscape:version="1.1.1 (3bf5ae0d25, 2021-09-20)"
   xmlns:inkscape="http://www.inkscape.org/namespaces/inkscape"
   xmlns:sodipodi="http://sodipodi.sourceforge.net/DTD/sodipodi-0.dtd"
   xmlns="http://www.w3.org/2000/svg"
   xmlns:svg="http://www.w3.org/2000/svg">
  <defs
     id="defs828">
    <clipPath
       clipPathUnits="userSpaceOnUse"
       id="clipPath1459">
      <rect
         style="fill:#283b52;stroke-width:0.87685"
         id="rect1461"
         width="340.18118"
         height="196.5"
         x="340.72018"
         y="196.5"
         clip-path="none" />
    </clipPath>
    <clipPath
       clipPathUnits="userSpaceOnUse"
       id="clipPath1568">
      <rect
         style="fill:#283b52;stroke-width:0.87685"
         id="rect1570"
         width="146.69897"
         height="102.53154"
         x="445.50516"
         y="250.80792" />
    </clipPath>
  </defs>
  <sodipodi:namedview
     id="namedview826"
     pagecolor="#ffffff"
     bordercolor="#cccccc"
     borderopacity="1"
     inkscape:pageshadow="0"
     inkscape:pageopacity="1"
     inkscape:pagecheckerboard="0"
     showgrid="false"
     inkscape:object-paths="true"
     inkscape:snap-intersection-paths="true"
     inkscape:snap-smooth-nodes="true"
     inkscape:object-nodes="true"
     inkscape:snap-midpoints="true"
     inkscape:snap-object-midpoints="false"
     inkscape:zoom="16"
     inkscape:cx="39.9375"
     inkscape:cy="14.9375"
     inkscape:window-width="3840"
     inkscape:window-height="2066"
     inkscape:window-x="2869"
     inkscape:window-y="-11"
     inkscape:window-maximized="1"
     inkscape:current-layer="g830" />
  <g
     inkscape:groupmode="layer"
     inkscape:label="Image"
     id="g830"
     transform="translate(-198.73009,-155.99713)">
    <path
       style="fill:#00e6ff;fill-opacity:1;stroke:none;stroke-width:1px;stroke-linecap:butt;stroke-linejoin:miter;stroke-opacity:1"
       d="m 198.75052,187.06495 c 0.38348,-21.45818 14.29806,-23.33117 21.51121,-18.96171 14.86443,-21.73724 35.16019,-10.50034 40.27377,4.82011 0,0 9.83938,-3.54537 17.88617,6.57287 7.6117,8.65904 0.92602,29.46375 -8.08662,30.43438 -21.62635,0.0713 -43.28504,-0.11329 -64.86882,0.22134 0,0 -6.71571,-4.56925 -6.71571,-23.08696 z"
       id="path1638"
       sodipodi:nodetypes="scccccss" />
    <path
       id="rect6480"
       style="fill:#ffd79a;fill-opacity:1;stroke:none;stroke-width:0.125843;stroke-miterlimit:4;stroke-dasharray:none;stroke-opacity:1"
       d="m 198.77539,189.00195 c 0.0194,3.89992 0.64088,8.25169 1.31973,10.92025 2.76489,10.8687 5.37111,10.22974 5.37111,10.22974 5.44273,0.0703 10.94308,-0.12317 16.38645,-0.16169 l -0.009,-20.98828 z"
       sodipodi:nodetypes="cscccc" />
    <path
       id="rect7245"
       style="fill:#7eff99;fill-opacity:1;stroke:none;stroke-width:0.104649;stroke-miterlimit:4;stroke-dasharray:none;stroke-opacity:1"
       d="m 214.39844,165.45898 0.002,0.77735 v -0.77735 z m 0.002,0.77735 c -4.80959,-0.5991 -8.63788,1.4415 -11.5293,5.4375 -2.26572,3.16219 -3.44001,6.92656 -3.86718,11.33984 -0.21899,1.96952 -0.32153,3.9658 -0.25263,5.98889 0.009,2.18706 0.0698,4.19876 0.48047,6.25782 l 15.16864,-6.1e-4 z"
       sodipodi:nodetypes="ccccccccccc" />
    <path
       id="rect8954"
       style="opacity:0.94;fill:#fb8b74;fill-opacity:1;stroke:none;stroke-width:0.132637;stroke-miterlimit:4;stroke-dasharray:none;stroke-opacity:1"
       d="m 239.64992,155.99942 c -13.02237,0.0145 -19.28718,12.23194 -19.38819,12.10382 -1.92019,-1.10218 -3.36466,-1.68119 -5.86134,-1.86691 v 22.76562 h 25.2168 z"
       sodipodi:nodetypes="cccccc" />
    <rect
       style="opacity:0.94;fill:#9d89ff;fill-opacity:1;stroke:none;stroke-width:0.389224;stroke-miterlimit:4;stroke-dasharray:none;stroke-opacity:1"
       id="rect10951"
       width="17.766449"
       height="20.968344"
       x="221.84818"
       y="189.00195" />
    <text
       xml:space="preserve"
       style="font-style:normal;font-weight:normal;font-size:40px;line-height:1.25;font-family:sans-serif;fill:#000000;fill-opacity:1;stroke:none"
       x="292.75"
       y="207.5"
       id="text22829"><tspan
         sodipodi:role="line"
         id="tspan22827"
         x="292.75"
         y="207.5"
         style="fill:#324568;fill-opacity:1" /></text>
  </g>
</svg>
